<svg xmlns="http://www.w3.org/2000/svg" width="2.125in" height="2.125in" viewBox="0 0 153 153">
  <title>Artboard 39</title>
  <g>
    <polygon points="36.249 64.677 36.249 94.567 57.595 76.893 36.249 64.677"/>
    <path d="M81.755,84.591a11.338,11.338,0,0,1-10.816-.061l-6.153-3.523L43.669,98.494h65.667L88.205,81Z"/>
    <path d="M74.723,77.738a3.524,3.524,0,0,0,3.316.021l38.1-21.235a1.6,1.6,0,0,0,.6-.495,1.693,1.693,0,0,0-.054-.234,2.562,2.562,0,0,0-2.2-.858L71.792,54.7H37.737a1.511,1.511,0,0,0-1.37,1.023,3.142,3.142,0,0,0,.5.357Z"/>
    <path d="M75.786,4.5A72,72,0,1,0,148.5,75.786,72,72,0,0,0,75.786,4.5Zm39.483,101.789H37.737a9.293,9.293,0,0,1-9.183-9.379l.014-40.758a8.141,8.141,0,0,1,.23-2.6c.879-3.415,4.222-6.851,9.708-6.851l33.328.189h43.435a9.144,9.144,0,0,1,8.523,5.91,8.143,8.143,0,0,1,.431,1.268,7.844,7.844,0,0,1,.217,1.942l.008.093.007,40.805A9.294,9.294,0,0,1,115.269,106.293Z"/>
    <polygon points="116.757 94.566 116.757 65.078 95.476 76.942 116.757 94.566"/>
  </g>
</svg>
