<svg xmlns="http://www.w3.org/2000/svg" width="2.125in" height="2.125in" viewBox="0 0 153 153">
  <title>Artboard 5</title>
  <path d="M77.214,148.5A72,72,0,1,0,4.5,77.214,72,72,0,0,0,77.214,148.5Zm-23.761-45.02A19.332,19.332,0,0,1,42.82,92.546c-.4-1-.318-1.091.735-.96a18.294,18.294,0,0,0,7.09-.415,2.965,2.965,0,0,0-1.309-.539A19.35,19.35,0,0,1,35.742,73.858c-.147-2.089-.155-2.07,1.814-1.212a19.5,19.5,0,0,0,6.5,1.516c-1-.922-1.844-1.646-2.629-2.425A19.594,19.594,0,0,1,37.8,49.273c.543-1.078.63-1.1,1.391-.2A54.745,54.745,0,0,0,55.929,62.44,52.739,52.739,0,0,0,75.879,68.3c2.391.2,2.416.184,2.145-2.219A19.366,19.366,0,0,1,94.739,44.8a18.874,18.874,0,0,1,16.04,5.219,1.778,1.778,0,0,0,1.873.481,38.705,38.705,0,0,0,10.172-3.921c.21-.119.447-.35.668-.2.312.211.064.511-.029.752a19.414,19.414,0,0,1-6.763,8.8c-.2.145-.4.281-.594.433-.043.035-.045.121-.118.334a37.381,37.381,0,0,0,10.373-2.944,19.092,19.092,0,0,1-2.52,3.535,34.625,34.625,0,0,1-6.142,5.869,2.028,2.028,0,0,0-.923,1.856,54.64,54.64,0,0,1-3.905,21.79,56.262,56.262,0,0,1-9.433,15.95A52.274,52.274,0,0,1,86.019,116.4a54.45,54.45,0,0,1-19.6,5.173,56.846,56.846,0,0,1-19.78-1.843,58.156,58.156,0,0,1-13.932-6.083c-.146-.086-.269-.211-.686-.545,10.565.888,19.867-1.664,28.076-7.983A22.5,22.5,0,0,1,53.453,103.476Z"/>
</svg>
